HIERARCHY
ROOT joint_0
{
	OFFSET 0.000000 0.000000 0.000000
	CHANNELS 6 Xposition Yposition Zposition Zrotation Yrotation Xrotation 
	JOINT joint_1
	{
		OFFSET 1.363060 -1.794630 0.839290
		CHANNELS 3 Zrotation Yrotation Xrotation
		JOINT joint_2
		{
			OFFSET 2.448110 -6.726130 0.000000
			CHANNELS 3 Zrotation Yrotation Xrotation
			JOINT joint_3
			{
				OFFSET 2.562200 -7.039590 0.000000
				CHANNELS 3 Zrotation Yrotation Xrotation
				JOINT joint_4
				{
					OFFSET 0.157640 -0.433110 2.322550
					CHANNELS 3 Zrotation Yrotation Xrotation
					End Site
					{
						OFFSET 0.000000 0.000000 0.000000
					}
				}
			}
		}
	}
	JOINT joint_5
	{
		OFFSET -1.305520 -1.794630 0.839290
		CHANNELS 3 Zrotation Yrotation Xrotation
		JOINT joint_6
		{
			OFFSET -2.542530 -6.985550 0.000000
			CHANNELS 3 Zrotation Yrotation Xrotation
			JOINT joint_7
			{
				OFFSET -2.568260 -7.056230 0.000000
				CHANNELS 3 Zrotation Yrotation Xrotation
				JOINT joint_8
				{
					OFFSET -0.164730 -0.452590 2.363150
					CHANNELS 3 Zrotation Yrotation Xrotation
					End Site
					{
						OFFSET 0.000000 0.000000 0.000000
					}
				}
			}
		}
	}
	JOINT joint_9
	{
		OFFSET 0.028270 2.035590 -0.193380
		CHANNELS 3 Zrotation Yrotation Xrotation
		JOINT joint_10
		{
			OFFSET 0.056720 2.048850 -0.042750
			CHANNELS 3 Zrotation Yrotation Xrotation
			JOINT joint_11
			{
				OFFSET -0.054170 1.746240 0.172020
				CHANNELS 3 Zrotation Yrotation Xrotation
				JOINT joint_12
				{
					OFFSET 0.104070 1.761360 -0.123970
					CHANNELS 3 Zrotation Yrotation Xrotation
					End Site
					{
						OFFSET 0.000000 0.000000 0.000000
					}
				}
			}
			JOINT joint_13
			{
				OFFSET 3.362410 1.200890 -0.311210
				CHANNELS 3 Zrotation Yrotation Xrotation
				JOINT joint_14
				{
					OFFSET 4.983000 -0.000000 -0.000000
					CHANNELS 3 Zrotation Yrotation Xrotation
					JOINT joint_15
					{
						OFFSET 3.483560 -0.000000 -0.000000
						CHANNELS 3 Zrotation Yrotation Xrotation
						JOINT joint_16
						{
							OFFSET 0.715260 -0.000000 -0.000000
							CHANNELS 3 Zrotation Yrotation Xrotation
							End Site
							{
								OFFSET 0.000000 0.000000 0.000000
							}
						}
					}
				}
			}
			JOINT joint_17
			{
				OFFSET -3.136600 1.374050 -0.404650
				CHANNELS 3 Zrotation Yrotation Xrotation
				JOINT joint_18
				{
					OFFSET -5.241900 -0.000000 -0.000000
					CHANNELS 3 Zrotation Yrotation Xrotation
					JOINT joint_19
					{
						OFFSET -3.444170 -0.000000 -0.000000
						CHANNELS 3 Zrotation Yrotation Xrotation
						JOINT joint_20
						{
							OFFSET -0.622530 -0.000000 -0.000000
							CHANNELS 3 Zrotation Yrotation Xrotation
							End Site
							{
								OFFSET 0.000000 0.000000 0.000000
							}
						}
					}
				}
			}
		}
	}
}
MOTION
Frames: 9
Frame Time: 0.041667
2.346859 17.024327 6.267158 -0.066278 -8.146574 6.135642 -26.008183 -14.771817 0.422846 -0.731155 5.473179 16.905439 -3.038935 16.000803 -16.551419 0.011330 0.867180 2.504938 28.162548 13.655734 -6.014425 -0.312005 -8.130433 24.972549 -0.043387 -9.430067 -14.517619 0.034464 0.257263 -0.650514 1.626276 -0.615610 -1.246684 -0.650882 -0.373394 -3.307157 7.297070 -9.626432 15.461097 1.081834 -4.121519 9.586521 -90.092501 9.428872 6.174642 22.451176 -28.320422 -3.906153 0.542972 1.309896 14.590739 -7.151860 -0.015379 -0.022808 89.614507 -1.366061 7.322291 -19.023052 26.513649 -3.343834 -0.690611 -0.107332 14.856879 7.105046 -0.018532 0.022066 
2.347076 17.023678 6.269537 -0.058354 -8.170850 6.127833 -26.186023 -14.941413 0.539987 -0.666385 5.483070 17.406712 -2.589908 16.947366 -16.529874 0.024045 1.253847 3.548023 28.780566 13.898104 -5.090337 -0.657956 -8.512170 25.924241 0.103595 -9.115673 -14.316348 0.043713 0.372740 -0.947305 1.651549 -0.479722 -1.656719 -0.852929 -0.282553 -3.184822 7.182227 -9.621708 15.742900 1.020483 -4.354102 9.747860 -90.332198 9.187022 4.952895 21.752545 -28.020833 -3.808850 0.775294 1.071942 15.373786 -7.140782 -0.019281 -0.024487 90.581473 -1.095646 5.989385 -19.017299 26.243982 -3.177742 -0.558941 -0.677987 16.345445 7.110147 -0.022400 0.021908 
2.346968 17.023678 6.272673 -0.064247 -8.158249 6.124719 -26.089071 -14.505936 0.795384 -0.834858 5.435713 17.448288 -2.633946 17.424539 -16.192645 0.040522 1.500306 4.214860 28.590402 13.590851 -4.971335 -0.427484 -8.473105 26.097707 -0.117852 -9.098943 -13.825850 0.054667 0.493146 -1.219805 1.506644 -0.487261 -1.504600 -0.614879 -0.362912 -3.333926 7.411538 -9.934986 15.350362 0.942914 -4.554873 9.901745 -90.028605 8.715459 3.973809 21.808154 -27.686377 -3.851612 0.902375 1.373747 15.552112 -7.135809 -0.016909 -0.020982 90.808720 -0.965938 5.520070 -18.722280 26.373515 -2.966636 -0.584688 -0.575907 17.291434 7.115122 -0.020683 0.026426 
2.346103 17.023787 6.275376 -0.062896 -8.172488 6.130164 -26.228447 -14.140295 0.752883 -0.719677 5.781157 17.707257 -2.692767 17.864072 -15.594807 0.047953 1.622015 4.549579 28.286251 13.615381 -4.858022 -0.494003 -8.539344 26.425014 -0.356987 -8.786859 -13.234640 0.061556 0.607314 -1.508710 1.441080 -0.664287 -1.803587 -0.638013 -0.349445 -3.433037 7.107061 -10.173592 15.369940 0.827950 -4.715418 10.059072 -89.742093 8.804125 3.402052 22.018860 -27.522244 -3.860307 1.027356 1.365245 15.827651 -7.138699 -0.016706 -0.019747 90.914033 -0.825500 5.098199 -18.368548 25.965036 -3.043338 -0.509592 -0.542413 17.690391 7.114173 -0.021345 0.029515 
2.345778 17.023787 6.278187 -0.061796 -8.178390 6.131692 -26.044866 -13.984773 0.804048 -0.944755 5.553191 17.520056 -2.490995 18.044150 -15.310377 0.049045 1.675127 4.699302 28.211231 13.539619 -4.864055 -0.438378 -8.673372 26.745837 -0.444423 -8.811858 -12.351554 0.066594 0.675545 -1.693087 1.324163 -0.542438 -1.568037 -0.619568 -0.590509 -3.219346 6.961380 -10.631754 15.200788 0.726102 -4.850142 10.190564 -89.588512 8.785617 2.862919 22.104876 -27.337392 -3.641577 0.781217 1.206805 16.207132 -7.143127 -0.018105 -0.020327 90.995049 -0.894037 4.770730 -18.277905 26.215272 -3.090546 -0.534134 -0.607481 17.997749 7.112288 -0.023602 0.032047 
2.345346 17.023787 6.281106 -0.060694 -8.183065 6.135836 -26.013166 -13.743007 0.630750 -0.959350 5.568881 17.697746 -2.515447 18.318075 -14.893021 0.035464 1.630899 4.612553 27.888607 13.489066 -5.102214 -0.630927 -8.670106 27.122459 -0.731765 -8.646625 -12.198235 0.063929 0.714096 -1.857605 1.280218 -0.747072 -1.543318 -0.632883 -0.398040 -3.439390 6.765331 -10.747290 15.092946 0.581153 -4.972209 10.335386 -89.354145 8.821955 2.708545 21.863236 -27.368837 -3.710094 0.769500 1.078573 15.963127 -7.156769 -0.027073 -0.027370 90.946756 -1.025116 4.434150 -17.970113 26.044944 -2.823098 -0.536790 -0.532596 17.874624 7.105817 -0.032399 0.026184 
2.345021 17.023787 6.284134 -0.056870 -8.188488 6.141234 -26.170682 -13.751490 0.216092 -1.011569 5.532504 17.991680 -2.270727 18.166394 -14.444036 0.017880 1.546590 4.415588 27.876436 13.396091 -5.452598 -0.692284 -8.975315 27.403796 -0.684183 -8.590888 -11.827151 0.060527 0.728002 -1.954055 1.378682 -0.968276 -1.597353 -0.483917 -0.529487 -3.619971 6.760637 -11.031924 15.132929 0.420791 -5.075647 10.465531 -89.158488 9.072190 2.381265 22.112875 -27.440198 -3.782084 0.861144 1.227741 15.684480 -7.165340 -0.037217 -0.035671 91.013688 -1.021075 4.372885 -18.160956 25.819523 -2.940695 -0.616698 -0.596344 17.851293 7.099094 -0.042284 0.020185 
2.344697 17.023895 6.287269 -0.051593 -8.194436 6.148431 -26.153472 -13.658870 -0.090337 -1.040325 5.336995 18.160238 -1.873746 18.052303 -13.980478 0.002051 1.458704 4.232250 27.792105 13.213987 -5.654476 -0.768731 -8.959666 27.588519 -0.902377 -8.669858 -11.487832 0.059051 0.713306 -1.948980 1.294570 -1.071561 -1.302915 -0.514013 -0.329311 -3.549086 6.692791 -11.144130 15.138600 0.242480 -5.130147 10.607400 -88.933597 9.054639 2.118075 22.288813 -27.506551 -3.833250 0.815484 1.306923 15.388771 -7.169664 -0.046497 -0.043450 91.103314 -1.318116 4.528136 -17.978743 25.918721 -2.631324 -0.751327 -0.579342 17.929041 7.096280 -0.050730 0.015497 
2.344264 17.024003 6.290513 -0.045937 -8.202049 6.157578 -26.293160 -13.665808 -0.462761 -1.177193 5.394938 18.215513 -1.587126 18.038647 -13.673173 -0.015931 1.356507 4.019646 27.664453 13.190018 -5.809476 -0.843962 -9.115491 27.711291 -0.939103 -8.553156 -11.227109 0.055586 0.668012 -1.880137 1.302062 -1.009336 -1.152344 -0.100170 -0.482616 -3.758934 6.476375 -11.230155 15.015230 0.034524 -5.167137 10.723346 -88.780040 9.127634 2.102973 22.191325 -27.647252 -3.648035 0.799246 1.244966 15.079683 -7.176667 -0.057553 -0.052760 91.226394 -1.540213 4.799022 -18.119366 25.666045 -2.705612 -0.777891 -0.696528 17.872839 7.090917 -0.060975 0.007435 
